<?xml version="1.0" encoding="UTF-8" standalone="no"?>
<!-- Created with Inkscape (http://www.inkscape.org/) -->

<svg
   width="144.1412mm"
   height="104.57619mm"
   viewBox="0 0 144.14121 104.57619"
   version="1.1"
   id="svg5"
   inkscape:version="1.2.2 (732a01da63, 2022-12-09)"
   sodipodi:docname="cardSimpleFill.svg"
   xmlns:inkscape="http://www.inkscape.org/namespaces/inkscape"
   xmlns:sodipodi="http://sodipodi.sourceforge.net/DTD/sodipodi-0.dtd"
   xmlns="http://www.w3.org/2000/svg"
   xmlns:svg="http://www.w3.org/2000/svg">
  <sodipodi:namedview
     id="namedview7"
     pagecolor="#ffffff"
     bordercolor="#000000"
     borderopacity="0.25"
     inkscape:showpageshadow="2"
     inkscape:pageopacity="0.0"
     inkscape:pagecheckerboard="0"
     inkscape:deskcolor="#d1d1d1"
     inkscape:document-units="mm"
     showgrid="false"
     inkscape:zoom="1.0494604"
     inkscape:cx="456.42506"
     inkscape:cy="240.59985"
     inkscape:window-width="1920"
     inkscape:window-height="991"
     inkscape:window-x="2391"
     inkscape:window-y="-9"
     inkscape:window-maximized="1"
     inkscape:current-layer="layer1" />
  <defs
     id="defs2" />
  <g
     inkscape:label="Warstwa 1"
     inkscape:groupmode="layer"
     id="layer1"
     transform="translate(-31.709333,-64.993566)">
    <path
       style="fill:none;fill-opacity:0.963636;stroke:#9670c4;stroke-width:0.759;stroke-linejoin:round;stroke-dasharray:none;stroke-opacity:1;paint-order:markers fill stroke"
       d="M 32.088836,117.7482 V 70.862845 c 0,0 2.638537,-4.994119 4.991597,-4.991597 36.478652,0.0391 35.997376,0.03775 70.951977,0.08913 3.7817,0.0056 42.2123,-0.529716 45.994,-0.534814 23.35811,-0.156569 21.37913,-0.895169 21.30342,15.242197 0.0986,23.552579 0.26111,51.758759 0,77.637149 -0.0479,4.7512 -5.30358,10.6798 -10.23214,10.67334 -27.31085,-0.0358 -88.289717,-0.0409 -114.290368,0 -13.494168,0.59337 -18.26791,0.88812 -18.676759,-14.07163 0.227192,-10.723 0.04397,-73.714568 -0.02108,-79.525638 -0.01252,-1.1181 -0.02065,42.367218 -0.02065,42.367218 z"
       id="path584"
       sodipodi:nodetypes="ccssccssccscc"
       inkscape:label="path584" />
    <path
       style="fill:#9670c4;fill-opacity:1;stroke:#9670c4;stroke-width:0.759;stroke-linejoin:round;stroke-dasharray:none;stroke-opacity:1;paint-order:markers fill stroke"
       d="m 32.086876,70.810851 c 0,0 0.174336,-1.322675 -0.03692,-7.341227 -0.06886,-1.961831 2.385925,-8.055985 4.348962,-8.059527 34.319897,-0.06193 34.496139,-0.04332 66.760302,0.08913 4.01417,0.01648 4.27185,3.164427 4.36939,6.173556 0.0806,2.485332 1.44215,4.215551 1.44215,4.215551 0,0 -48.957841,-0.09339 -72.087429,0.07067 -2.270868,0.01611 -4.796454,4.851837 -4.796454,4.851837 z"
       id="path635"
       sodipodi:nodetypes="csssscscc" />
    <path
       style="fill:#000000;fill-opacity:0.528967;fill-rule:nonzero;stroke:#9670c4;stroke-width:0.682;stroke-linejoin:round;stroke-dasharray:none;stroke-opacity:1;paint-order:markers fill stroke"
       d="m 37.026347,117.10028 c 0.242705,-8.42384 -0.06173,-28.055296 -0.04457,-39.270974 0.005,-3.28541 2.46008,-6.269777 5.869751,-6.23114 45.886734,0.298605 81.003892,0.254611 120.113902,0.181144 8.46911,-0.360242 8.01281,5.549733 7.84687,13.086529 -0.44805,20.349691 0.26011,46.476461 0.0167,68.840871 -0.0447,4.10604 -3.17123,9.45905 -7.77178,9.58056 -66.326234,1.75181 -82.025789,1.21251 -114.148401,1.24791 -6.8638,0.13026 -11.407239,-2.87582 -11.460822,-7.59668 -0.07522,-6.62729 0.128012,-29.38866 -0.421642,-39.83822 z"
       id="path584-7"
       sodipodi:nodetypes="csccssscscc"
       inkscape:label="path584" />
  </g>
</svg>
