<?xml version="1.0" encoding="UTF-8" standalone="no"?>
<!-- Created with Inkscape (http://www.inkscape.org/) -->

<svg
   width="505.88672mm"
   height="20.690729mm"
   viewBox="0 0 505.88671 20.69073"
   version="1.1"
   id="svg5"
   xml:space="preserve"
   inkscape:version="1.2.2 (732a01da63, 2022-12-09)"
   sodipodi:docname="headerLine.svg"
   xmlns:inkscape="http://www.inkscape.org/namespaces/inkscape"
   xmlns:sodipodi="http://sodipodi.sourceforge.net/DTD/sodipodi-0.dtd"
   xmlns="http://www.w3.org/2000/svg"
   xmlns:svg="http://www.w3.org/2000/svg"><sodipodi:namedview
     id="namedview7"
     pagecolor="#ffffff"
     bordercolor="#000000"
     borderopacity="0.25"
     inkscape:showpageshadow="2"
     inkscape:pageopacity="0.0"
     inkscape:pagecheckerboard="0"
     inkscape:deskcolor="#d1d1d1"
     inkscape:document-units="mm"
     showgrid="false"
     inkscape:zoom="16.791366"
     inkscape:cx="1908.3022"
     inkscape:cy="16.705014"
     inkscape:window-width="1920"
     inkscape:window-height="991"
     inkscape:window-x="2391"
     inkscape:window-y="-9"
     inkscape:window-maximized="1"
     inkscape:current-layer="layer1" /><defs
     id="defs2" /><g
     inkscape:label="Warstwa 1"
     inkscape:groupmode="layer"
     id="layer1"
     transform="translate(133.82449,-293.4017)"><path
       style="fill:none;stroke:#7647d5;stroke-width:0.759;stroke-linejoin:round;stroke-opacity:1;paint-order:markers fill stroke"
       d="m -133.8244,296.22403 0.2117,5e-5 c 0.22287,0.0279 0.40212,0.24194 0.40212,0.24194 0,0 3.309,3.94327 6.8701,3.99047 3.56111,0.0474 136.653506,0.0394 136.653506,0.0394 0,0 5.601651,0.54364 9.225786,3.26961 3.624134,2.72598 9.438505,7.16947 9.438505,7.16947 0,0 3.844735,2.61566 7.831283,2.69446 3.986549,0.0785 164.41514,0.0835 164.41514,0.0835 0,0 4.958,-0.635 7.65246,-2.3998 2.69447,-1.7648 11.5117,-8.09593 11.5117,-8.09593 0,0 4.38993,-2.49579 7.59882,-2.62951 3.20888,-0.13367 135.15194,-0.15597 135.15194,-0.15597 0,0 5.30604,-1.17009 6.84115,-3.83284 1.44842,-2.51243 1.49302,-2.60723 1.49302,-2.60723 0,0 0.25514,-0.21045 0.42227,-0.21045 0.16713,0 0.16713,0 0.16713,0"
       id="path351"
       inkscape:label="path351"
       sodipodi:nodetypes="cscscscccsccccc" /><path
       style="fill:none;stroke:#7647d5;stroke-width:0.759;stroke-linejoin:round;stroke-opacity:1;paint-order:markers fill stroke"
       d="m 52.313593,302.53643 132.139097,0.0315 -0.0867,-0.0527"
       id="path961" /><text
       xml:space="preserve"
       style="font-style:normal;font-variant:normal;font-weight:normal;font-stretch:normal;font-size:4.57236px;font-family:'Segoe Fluent Icons';-inkscape-font-specification:'Segoe Fluent Icons, Normal';font-variant-ligatures:normal;font-variant-caps:normal;font-variant-numeric:normal;font-variant-east-asian:normal;fill:#7647d5;fill-opacity:1;stroke:#7647d5;stroke-width:0.270066;stroke-linejoin:round;stroke-opacity:1;paint-order:markers fill stroke"
       x="94.467903"
       y="328.07684"
       id="text1017"
       transform="scale(1.0586281,0.94461878)"><tspan
         sodipodi:role="line"
         id="tspan1015"
         style="font-style:normal;font-variant:normal;font-weight:normal;font-stretch:normal;font-size:4.57236px;font-family:'Segoe Fluent Icons';-inkscape-font-specification:'Segoe Fluent Icons, Normal';font-variant-ligatures:normal;font-variant-caps:normal;font-variant-numeric:normal;font-variant-east-asian:normal;fill:#7647d5;fill-opacity:1;stroke:#7647d5;stroke-width:0.270066;stroke-opacity:1"
         x="94.467903"
         y="328.07684">SCROLL DOWN</tspan></text></g></svg>
