<?xml version="1.0" encoding="UTF-8" standalone="no"?>
<!-- Created with Inkscape (http://www.inkscape.org/) -->

<svg
   width="687.71106mm"
   height="230.02663mm"
   viewBox="0 0 687.71106 230.02663"
   version="1.1"
   id="svg33664"
   xml:space="preserve"
   inkscape:version="1.2.2 (732a01da63, 2022-12-09)"
   sodipodi:docname="horizontalPanel.svg"
   xmlns:inkscape="http://www.inkscape.org/namespaces/inkscape"
   xmlns:sodipodi="http://sodipodi.sourceforge.net/DTD/sodipodi-0.dtd"
   xmlns:xlink="http://www.w3.org/1999/xlink"
   xmlns="http://www.w3.org/2000/svg"
   xmlns:svg="http://www.w3.org/2000/svg"><sodipodi:namedview
     id="namedview33666"
     pagecolor="#ffffff"
     bordercolor="#000000"
     borderopacity="0.25"
     inkscape:showpageshadow="2"
     inkscape:pageopacity="0.0"
     inkscape:pagecheckerboard="0"
     inkscape:deskcolor="#d1d1d1"
     inkscape:document-units="mm"
     showgrid="false"
     inkscape:zoom="0.39776585"
     inkscape:cx="1385.2371"
     inkscape:cy="408.5318"
     inkscape:window-width="1920"
     inkscape:window-height="991"
     inkscape:window-x="2391"
     inkscape:window-y="-9"
     inkscape:window-maximized="1"
     inkscape:current-layer="layer1" /><defs
     id="defs33661"><linearGradient
       inkscape:collect="always"
       id="linearGradient37282"><stop
         style="stop-color:#5d4c87;stop-opacity:1;"
         offset="0"
         id="stop37278" /><stop
         style="stop-color:#1c0e3f;stop-opacity:1;"
         offset="0.24526314"
         id="stop39566" /><stop
         style="stop-color:#1e1243;stop-opacity:1;"
         offset="0.72026294"
         id="stop39982" /><stop
         style="stop-color:#4d416e;stop-opacity:1;"
         offset="1"
         id="stop37280" /></linearGradient><linearGradient
       id="linearGradient35298"
       inkscape:swatch="solid"><stop
         style="stop-color:#000000;stop-opacity:1;"
         offset="0"
         id="stop35296" /></linearGradient><linearGradient
       inkscape:collect="always"
       xlink:href="#linearGradient37282"
       id="linearGradient37298"
       x1="-147.82037"
       y1="-41.907505"
       x2="94.721893"
       y2="480.91891"
       gradientUnits="userSpaceOnUse" /></defs><g
     inkscape:label="Warstwa 1"
     inkscape:groupmode="layer"
     id="layer1"
     transform="translate(230.49413,-9.4171216)"><path
       style="fill:#0c0529;fill-opacity:1;stroke:#8b5c9b;stroke-width:0.778;stroke-linejoin:round;stroke-dasharray:none;stroke-opacity:1;paint-order:markers fill stroke"
       d="m -174.3818,9.8773235 h 607.10265 c 0,0 24.34053,1.9989825 24.10537,25.8691805 -0.23519,23.870198 -0.11758,146.278456 -0.11758,146.278456 0,0 0,9.75974 -6.70248,16.34462 -6.70248,6.58488 -34.80581,34.80581 -34.80581,34.80581 0,0 -4.82107,5.17383 -12.34664,5.52659 -7.5256,0.35277 -608.16093,0.35277 -608.16093,0.35277 0,0 -24.45814,-4.23314 -24.69331,-25.7516 -0.23518,-21.51845 0,-147.219153 0,-147.219153 0,0 1.05828,-8.583864 5.17383,-13.287351 4.11555,-4.703488 35.62892,-36.922376 35.62892,-36.922376 0,0 9.28939,-6.8200567 14.81598,-5.9969465 z"
       id="path33851" /><path
       style="fill:url(#linearGradient37298);fill-opacity:1;stroke:#8b5c9b;stroke-width:0.777999;stroke-linejoin:round;stroke-dasharray:none;stroke-opacity:1;paint-order:markers fill stroke"
       d="m -224.32978,117.23684 -0.26174,-46.272974 c 0,0 1.46984,-10.64164 6.52609,-14.815987 5.05625,-4.174344 34.21787,-34.747011 34.21787,-34.747011 0,0 7.11402,-6.467296 15.46271,-6.408502 8.34869,0.05879 595.22634,0.235174 595.22634,0.235174 0,0 24.47877,4.062493 24.64507,24.51658 0.16629,20.454088 -0.18693,136.98942 -0.18693,136.98942 0,0 -0.82312,10.58285 -6.05576,15.69789 -5.23264,5.11504 -34.86459,35.15857 -34.86459,35.15857 0,0 -7.40799,6.11453 -15.22754,6.17332 -7.81955,0.0588 -594.52081,-0.0588 -594.52081,-0.0588 0,0 -24.62813,-1.14322 -24.96071,-27.91646 -0.33259,-26.77324 0,-88.55123 0,-88.55123 z"
       id="path35221" /></g></svg>
